/vscmnt/brussel_pixiu_data/_data_brussel/112/vsc11236/PredSimResults/SUBJ11mtu3D/weighted-expIG/worker_05.mot
version=1
nRows=11
nColumns=50
inDegrees=yes
endheader
                time	         pelvis_tilt	         pelvis_list	     pelvis_rotation	           pelvis_tx	           pelvis_ty	           pelvis_tz	       hip_flexion_r	     hip_adduction_r	      hip_rotation_r	        knee_angle_r	       ankle_angle_r	         mtp_angle_r	       hip_flexion_l	     hip_adduction_l	      hip_rotation_l	        knee_angle_l	       ankle_angle_l	         mtp_angle_l	    lumbar_extension	      lumbar_bending	     lumbar_rotation	 ercspn_r/activation	 intobl_r/activation	 extobl_r/activation	    abd_r/activation	    add_r/activation	hamstrings_r/activation	bifemsh_r/activation	glut_max_r/activation	iliopsoas_r/activation	rect_fem_r/activation	  vasti_r/activation	gastroc_r/activation	 soleus_r/activation	tib_ant_r/activation	 ercspn_l/activation	 intobl_l/activation	 extobl_l/activation	    abd_l/activation	    add_l/activation	hamstrings_l/activation	bifemsh_l/activation	glut_max_l/activation	iliopsoas_l/activation	rect_fem_l/activation	  vasti_l/activation	gastroc_l/activation	 soleus_l/activation	tib_ant_l/activation	
          0.00000000	         -5.87286156	         -5.05255404	          8.24767226	          0.00000000	          0.94296568	         -0.01809978	         30.34429960	          1.61613331	         -4.06697775	         -4.48793772	          5.26983507	          0.22914387	        -11.36185558	         -5.41429305	          5.03895427	         -7.23571036	         12.99952185	         25.68079067	         -3.61361023	          3.09987015	         -1.98222868	          0.07977143	          0.12166417	          0.02648445	          0.01240147	          0.12664786	          0.04545031	          0.16696215	          0.02916063	          0.08604588	          0.01329858	          0.01000011	          0.01001257	          0.01000003	          0.27700576	          0.04155123	          0.01000003	          0.01000009	          0.05484982	          0.02901174	          0.02545028	          0.12915319	          0.05594812	          0.45129194	          0.01000026	          0.01000007	          0.35749494	          0.26453458	          0.01000003	
          0.01440880	         -6.01352159	         -4.85915943	          8.26422352	          0.01743251	          0.94073170	         -0.01716668	         30.39041757	          1.62573604	         -4.03569939	         -6.07892934	          4.86199403	          0.18948247	        -11.63977463	         -5.28987365	          4.63581912	         -8.45792690	         12.59352995	         27.56675911	         -3.30333374	          3.34793165	         -2.16589676	          0.06432437	          0.12007047	          0.02135591	          0.01000016	          0.13907259	          0.05364573	          0.13463121	          0.06836847	          0.06938364	          0.01072344	          0.01000007	          0.01713151	          0.01240177	          0.30335895	          0.06403949	          0.01000005	          0.01000017	          0.04422850	          0.05926969	          0.02447954	          0.10414353	          0.04511413	          0.45321684	          0.01000038	          0.01000019	          0.32975858	          0.25201127	          0.01000001	
          0.02881760	         -6.13217724	         -4.65692484	          8.22863699	          0.03517472	          0.93891614	         -0.01613682	         30.22167606	          1.62678330	         -4.02075099	         -7.37512200	          4.30421523	          0.17999581	        -11.72267170	         -5.14124767	          4.20950255	        -10.09137293	         12.05141471	         29.56317539	         -2.98889610	          3.59969741	         -2.32986078	          0.07561920	          0.09681961	          0.01722047	          0.07334966	          0.15390050	          0.05683583	          0.10856093	          0.08194890	          0.05594794	          0.01000007	          0.01000001	          0.01381412	          0.01000025	          0.34422821	          0.08453105	          0.01000002	          0.01000010	          0.03566394	          0.05337479	          0.02512250	          0.08397684	          0.03637807	          0.44187008	          0.01000048	          0.01322478	          0.29800657	          0.23439827	          0.01000000	
          0.04322640	         -6.22807944	         -4.44657769	          8.14319641	          0.05296298	          0.93776380	         -0.01501038	         29.91192867	          1.62981195	         -4.04754189	         -8.45565323	          3.67917240	          0.14015499	        -11.52554837	         -4.96797122	          3.76694185	        -12.23586475	         11.30349400	         31.67854364	         -2.69367335	          3.85541487	         -2.46833593	          0.08090651	          0.07807111	          0.01388584	          0.11328005	          0.17402724	          0.05201365	          0.08753885	          0.10591302	          0.04511397	          0.01000016	          0.01000031	          0.01217533	          0.01000828	          0.37100080	          0.11095996	          0.01000002	          0.01000010	          0.02875784	          0.06233744	          0.02582804	          0.06771531	          0.02933369	          0.41632940	          0.01000046	          0.01240119	          0.24029953	          0.19253592	          0.01000000	
          0.05763520	         -6.29873018	         -4.23589823	          8.01189555	          0.07060258	          0.93737330	         -0.01380779	         29.53593836	          1.63905274	         -4.12158096	         -9.49179989	          3.23915125	          0.11127490	        -10.99448466	         -4.77817309	          3.29972795	        -14.95967606	         10.33936089	         33.81587089	         -2.43075997	          4.12413779	         -2.57577179	          0.07687483	          0.06295314	          0.01119695	          0.12867241	          0.17135753	          0.05165701	          0.07058756	          0.10373188	          0.03637794	          0.01000012	          0.05292733	          0.01000024	          0.01000017	          0.39229938	          0.12602040	          0.01000003	          0.01000011	          0.02318907	          0.07978671	          0.03155512	          0.05460276	          0.02365341	          0.37203980	          0.01000017	          0.01000008	          0.19376703	          0.15525255	          0.01000000	
          0.07204400	         -6.34344648	         -4.02427955	          7.83815875	          0.08797125	          0.93771799	         -0.01255969	         29.07788739	          1.65356416	         -4.21920982	        -10.42042640	          2.90881926	          0.08696903	        -10.11673472	         -4.57525180	          2.79234898	        -18.25760599	          9.13648573	         35.83771155	         -2.20772189	          4.40550127	         -2.64936021	          0.07030991	          0.05076267	          0.01000004	          0.13327026	          0.13817529	          0.05339463	          0.05691877	          0.09688603	          0.02933358	          0.01000010	          0.11761468	          0.01000024	          0.01000016	          0.39982248	          0.13288613	          0.01000005	          0.01000012	          0.01869865	          0.09419743	          0.03709318	          0.04402957	          0.01907307	          0.31593255	          0.01000007	          0.01000002	          0.15624525	          0.12518886	          0.01000001	
          0.08645280	         -6.36375457	         -3.80376866	          7.62610399	          0.10496737	          0.93877687	         -0.01130044	         28.50167415	          1.67141445	         -4.28932377	        -11.17250808	          2.72576025	          0.06469072	         -8.91676359	         -4.36118385	          2.23754991	        -22.04656579	          7.70063530	         37.45711641	         -2.03220945	          4.69130074	         -2.68876244	          0.05914115	          0.04093281	          0.01000005	          0.13122919	          0.11141852	          0.05065026	          0.04589686	          0.09357684	          0.02365332	          0.01000009	          0.16409394	          0.01000038	          0.01000032	          0.39653757	          0.14185437	          0.01000005	          0.01000019	          0.01507778	          0.10855080	          0.02991049	          0.06202056	          0.01537969	          0.25567221	          0.01000004	          0.01000000	          0.12598933	          0.10094682	          0.01000011	
          0.10086160	         -6.36150257	         -3.56144453	          7.37816183	          0.12153800	          0.94052644	         -0.01005257	         27.77823831	          1.68464028	         -4.29601412	        -11.69333495	          2.68363553	          0.05093718	         -7.43747916	         -4.13713896	          1.63207559	        -26.22606942	          6.13400879	         38.21482208	         -1.90800816	          4.96543479	         -2.69445424	          0.05099650	          0.03300644	          0.01000005	          0.12329289	          0.08984303	          0.04839476	          0.03700926	          0.08962554	          0.01907301	          0.01000009	          0.18799009	          0.01000030	          0.01000029	          0.38370733	          0.14830103	          0.01000005	          0.01000041	          0.01215806	          0.11654078	          0.02411855	          0.06931251	          0.01240152	          0.20616292	          0.01000004	          0.01000000	          0.10159229	          0.08139910	          0.01000004	
          0.11527040	         -6.33807022	         -3.28083525	          7.09358588	          0.13770045	          0.94289599	         -0.00883283	         26.89546927	          1.67662267	         -4.22844495	        -11.95901146	          2.74580542	          0.04463865	         -5.73394154	         -3.89950487	          0.99466802	        -30.67979984	          4.45972863	         37.91445414	         -1.83187192	          5.20724750	         -2.66568711	          0.04385308	          0.02661496	          0.01000004	          0.10958108	          0.07244549	          0.04614442	          0.02984269	          0.08646806	          0.01537964	          0.01000010	          0.19389091	          0.01000014	          0.01000016	          0.36675800	          0.15060458	          0.01000004	          0.01818742	          0.01000000	          0.12701823	          0.01944816	          0.07728189	          0.01000004	          0.16624079	          0.01000003	          0.01000000	          0.08191957	          0.06563668	          0.02349068	
          0.12967921	         -6.29442907	         -2.94591382	          6.77014062	          0.15347098	          0.94574592	         -0.00765226	         25.87182002	          1.62655247	         -4.08679470	        -11.99916599	          2.88626011	          0.04698247	         -3.86593962	         -3.63536997	          0.35420314	        -35.27852587	          2.73843212	         36.42814534	         -1.80257212	          5.39619035	         -2.60296227	          0.03536138	          0.02146115	          0.01000004	          0.09596502	          0.05841688	          0.04374721	          0.02406387	          0.08431321	          0.01240148	          0.01000012	          0.18703347	          0.01000007	          0.01000008	          0.34589594	          0.15912263	          0.01000003	          0.03506542	          0.01000000	          0.13825355	          0.01568216	          0.07924597	          0.01000000	          0.13404934	          0.01000004	          0.01000000	          0.06605636	          0.05292655	          0.06299052	
          0.14408801	         -6.23089434	         -2.54387498	          6.40600587	          0.16885326	          0.94889362	         -0.00651205	         24.74832259	          1.51604442	         -3.86198733	        -11.88147436	          3.08914440	          0.05798452	         -1.90116370	         -3.32550027	         -0.26797565	        -39.90451020	          1.18875221	         33.54987802	         -1.82091301	          5.51259707	         -2.51131320	          0.02851390	          0.01730534	          0.01000004	          0.08994809	          0.04710482	          0.03794415	          0.01940409	          0.07391099	          0.01000004	          0.01000014	          0.17163299	          0.01000007	          0.01000009	          0.32175617	          0.16732462	          0.01000006	          0.06300216	          0.01000000	          0.13951339	          0.01264543	          0.06790572	          0.01000000	          0.10809167	          0.01000007	          0.01000000	          0.05326496	          0.04267766	          0.12430073	
